<svg id="svg" version="1.1" xmlns="http://www.w3.org/2000/svg" xmlns:xlink="http://www.w3.org/1999/xlink" width="400" height="400" viewBox="0, 0, 400,400"><g id="svgg"><path id="path0" d="M204.900 51.876 C 205.285 51.976,205.915 51.976,206.300 51.876 C 206.685 51.775,206.370 51.693,205.600 51.693 C 204.830 51.693,204.515 51.775,204.900 51.876 M185.400 66.635 C 179.174 67.336,169.360 69.024,166.000 69.972 C 156.328 72.698,151.080 74.564,143.200 78.078 C 139.983 79.512,134.234 82.487,132.807 83.455 C 132.041 83.975,131.186 84.400,130.907 84.400 C 130.628 84.400,130.400 84.580,130.400 84.800 C 130.400 85.020,130.244 85.200,130.053 85.200 C 128.760 85.200,116.221 94.376,110.211 99.720 C 104.758 104.570,96.873 113.039,93.379 117.800 C 92.733 118.680,92.096 119.490,91.962 119.600 C 91.610 119.891,86.830 127.027,85.264 129.600 C 77.142 142.946,70.653 159.730,68.236 173.641 L 67.986 175.083 69.893 174.775 C 70.942 174.605,73.150 174.175,74.800 173.818 C 76.450 173.462,78.340 173.073,79.000 172.953 C 81.916 172.424,82.058 172.199,81.763 168.566 C 81.505 165.389,81.527 165.267,82.448 164.787 C 82.972 164.515,83.712 163.966,84.094 163.569 C 84.475 163.172,85.081 162.682,85.439 162.482 C 86.189 162.062,85.969 160.963,84.895 159.766 C 82.757 157.381,80.400 154.237,80.400 153.768 C 80.400 152.072,88.665 151.156,104.937 151.050 C 118.335 150.962,118.444 150.942,117.864 148.721 C 117.747 148.274,117.846 147.596,118.084 147.215 C 118.402 146.704,118.335 145.516,117.829 142.707 C 116.682 136.333,117.652 130.821,119.466 133.404 C 119.870 133.979,120.609 134.964,121.108 135.592 C 121.607 136.220,122.400 137.603,122.869 138.663 C 123.697 140.535,123.734 140.563,124.109 139.596 C 124.322 139.048,124.640 138.240,124.816 137.800 C 124.992 137.360,125.242 136.114,125.370 135.032 C 125.717 132.105,126.574 132.006,127.965 134.731 C 129.352 137.450,132.013 137.120,131.415 134.304 C 130.691 130.899,130.727 128.793,131.542 126.697 C 131.991 125.544,132.461 124.105,132.587 123.500 C 132.906 121.964,134.195 122.043,135.025 123.649 C 135.380 124.336,136.365 125.551,137.213 126.349 C 138.714 127.761,140.000 131.079,140.000 133.537 C 140.000 134.027,141.312 135.698,143.244 137.669 C 145.028 139.490,146.649 141.404,146.846 141.922 C 147.044 142.441,147.429 142.790,147.702 142.699 C 148.292 142.502,148.206 141.032,147.355 136.696 L 146.746 133.591 147.807 131.296 C 148.391 130.033,149.008 128.730,149.178 128.400 C 149.418 127.937,150.125 127.824,152.285 127.907 C 156.622 128.073,162.800 126.605,162.800 125.410 C 162.800 124.723,163.424 124.592,163.800 125.200 C 164.087 125.664,165.984 125.725,166.663 125.293 C 166.918 125.131,167.260 124.279,167.424 123.399 C 167.588 122.520,168.054 121.565,168.461 121.277 C 169.876 120.276,169.181 118.059,167.536 118.329 C 165.870 118.603,166.619 113.632,168.475 112.101 C 169.122 111.567,171.042 112.245,171.937 113.324 C 172.884 114.465,173.158 117.118,172.350 117.329 C 171.872 117.454,171.600 117.883,171.600 118.514 C 171.600 119.612,172.497 120.568,173.282 120.306 C 173.809 120.130,174.872 121.275,175.319 122.500 C 175.719 123.596,177.839 123.418,178.622 122.223 C 179.180 121.371,179.388 121.303,180.242 121.692 C 181.930 122.461,182.174 121.700,181.424 118.001 C 180.901 115.418,180.856 114.442,181.212 113.365 C 181.549 112.342,181.544 111.643,181.192 110.576 C 180.832 109.485,180.833 108.887,181.195 108.013 C 181.494 107.290,181.567 106.072,181.393 104.685 C 180.770 99.694,184.328 99.320,185.254 104.280 C 185.517 105.687,185.931 106.439,186.830 107.142 C 187.581 107.730,187.961 108.325,187.820 108.692 C 187.694 109.020,188.106 110.213,188.734 111.344 C 189.363 112.475,190.114 114.480,190.403 115.800 C 191.012 118.580,191.348 119.107,192.107 118.477 C 192.530 118.126,193.064 118.457,194.559 119.998 C 195.610 121.082,196.782 122.067,197.164 122.189 C 197.679 122.352,197.977 123.176,198.320 125.383 C 198.991 129.695,199.658 131.600,200.497 131.600 C 201.550 131.600,201.233 126.896,200.012 124.400 C 199.795 123.955,200.595 119.297,200.949 118.950 C 201.624 118.286,202.853 118.487,203.167 119.313 C 204.103 121.774,206.887 122.359,207.586 120.241 C 207.860 119.411,208.586 118.607,209.630 117.977 C 212.494 116.248,215.515 113.594,215.768 112.583 C 216.063 111.411,217.017 111.310,217.936 112.356 C 218.387 112.869,220.204 113.459,223.600 114.194 C 229.186 115.404,229.200 115.409,229.200 116.253 C 229.200 117.490,230.615 116.544,231.475 114.732 C 233.231 111.032,236.183 112.673,236.992 117.800 C 237.672 122.107,238.453 124.000,239.553 124.006 C 240.129 124.009,240.835 124.161,241.121 124.343 C 241.408 124.525,242.533 124.522,243.621 124.337 C 244.710 124.152,246.525 123.843,247.656 123.651 C 248.848 123.448,249.864 123.029,250.075 122.651 C 250.673 121.582,251.100 121.895,251.781 123.900 C 253.758 129.725,257.940 128.538,257.527 122.269 C 257.441 120.964,257.521 120.529,257.772 120.927 C 258.029 121.335,258.400 121.417,258.972 121.194 C 259.427 121.016,262.016 120.464,264.724 119.968 C 271.593 118.710,271.837 117.972,270.263 103.200 C 269.295 94.119,269.130 90.891,269.618 90.589 C 270.372 90.123,271.426 91.511,271.974 93.692 C 272.266 94.851,273.545 98.988,274.817 102.884 C 276.089 106.780,277.244 110.490,277.384 111.129 C 277.525 111.767,278.081 112.674,278.620 113.142 C 279.159 113.611,279.600 114.244,279.600 114.548 C 279.600 115.534,280.873 116.196,283.161 116.400 C 285.298 116.591,285.420 116.663,285.846 117.980 C 286.181 119.017,286.628 119.472,287.646 119.814 C 289.200 120.335,289.765 121.290,290.389 124.446 C 291.179 128.439,290.906 128.405,303.000 126.008 C 305.851 125.444,308.464 124.343,308.253 123.795 C 308.048 123.260,304.585 118.327,303.326 116.775 C 299.774 112.399,297.079 109.349,292.967 105.052 C 287.355 99.186,273.489 88.299,267.400 84.977 C 266.960 84.737,265.160 83.722,263.400 82.721 C 260.575 81.115,252.646 77.200,252.217 77.200 C 252.128 77.200,250.918 76.681,249.528 76.047 C 242.295 72.747,229.156 69.034,219.800 67.647 C 212.141 66.512,209.461 66.310,200.400 66.184 C 193.596 66.090,189.010 66.228,185.400 66.635 M98.587 97.700 L 96.200 100.200 98.700 97.813 C 100.075 96.499,101.200 95.374,101.200 95.313 C 101.200 95.017,100.805 95.378,98.587 97.700 M183.100 104.540 C 182.449 104.785,182.000 105.255,182.000 105.690 C 182.000 106.621,183.166 107.098,183.634 106.358 C 183.887 105.959,183.989 105.943,183.994 106.300 C 183.997 106.575,184.270 106.800,184.600 106.800 C 185.329 106.800,185.388 105.583,184.700 104.739 C 184.305 104.255,183.968 104.213,183.100 104.540 M169.795 118.077 C 169.394 119.110,169.730 120.176,170.505 120.325 C 171.370 120.491,171.440 119.279,170.629 118.176 C 170.108 117.469,170.034 117.460,169.795 118.077 M117.898 154.235 C 117.468 154.665,117.531 156.400,117.976 156.400 C 118.549 156.400,118.699 155.898,118.435 154.869 C 118.304 154.356,118.062 154.071,117.898 154.235 M274.524 179.000 C 274.526 180.320,274.601 180.812,274.690 180.093 C 274.779 179.374,274.777 178.294,274.686 177.693 C 274.595 177.092,274.522 177.680,274.524 179.000 M233.734 180.800 C 233.734 182.450,233.805 183.125,233.891 182.300 C 233.978 181.475,233.978 180.125,233.891 179.300 C 233.805 178.475,233.734 179.150,233.734 180.800 M318.514 181.000 C 318.517 182.100,318.595 182.503,318.687 181.895 C 318.779 181.286,318.777 180.386,318.682 179.895 C 318.587 179.403,318.511 179.900,318.514 181.000 M246.493 182.000 C 246.493 182.770,246.575 183.085,246.676 182.700 C 246.776 182.315,246.776 181.685,246.676 181.300 C 246.575 180.915,246.493 181.230,246.493 182.000 M282.131 184.200 C 282.133 185.740,282.205 186.321,282.292 185.491 C 282.379 184.661,282.377 183.401,282.289 182.691 C 282.200 181.981,282.129 182.660,282.131 184.200 M296.101 191.400 C 296.105 192.280,296.187 192.593,296.283 192.095 C 296.379 191.598,296.375 190.878,296.275 190.495 C 296.175 190.113,296.096 190.520,296.101 191.400 M218.524 193.800 C 218.526 195.120,218.601 195.612,218.690 194.893 C 218.779 194.174,218.777 193.094,218.686 192.493 C 218.595 191.892,218.522 192.480,218.524 193.800 M238.924 193.800 C 238.926 195.120,239.001 195.612,239.090 194.893 C 239.179 194.174,239.177 193.094,239.086 192.493 C 238.995 191.892,238.922 192.480,238.924 193.800 M134.528 196.800 C 134.528 198.230,134.601 198.815,134.689 198.100 C 134.778 197.385,134.778 196.215,134.689 195.500 C 134.601 194.785,134.528 195.370,134.528 196.800 M281.709 197.200 C 281.709 198.190,281.787 198.595,281.882 198.100 C 281.978 197.605,281.978 196.795,281.882 196.300 C 281.787 195.805,281.709 196.210,281.709 197.200 M161.293 198.400 C 161.293 199.170,161.375 199.485,161.476 199.100 C 161.576 198.715,161.576 198.085,161.476 197.700 C 161.375 197.315,161.293 197.630,161.293 198.400 M273.709 202.800 C 273.709 203.790,273.787 204.195,273.882 203.700 C 273.978 203.205,273.978 202.395,273.882 201.900 C 273.787 201.405,273.709 201.810,273.709 202.800 M260.893 202.800 C 260.893 203.570,260.975 203.885,261.076 203.500 C 261.176 203.115,261.176 202.485,261.076 202.100 C 260.975 201.715,260.893 202.030,260.893 202.800 M266.501 204.600 C 266.505 205.480,266.587 205.793,266.683 205.295 C 266.779 204.798,266.775 204.078,266.675 203.695 C 266.575 203.313,266.496 203.720,266.501 204.600 M170.928 206.000 C 170.928 207.430,171.001 208.015,171.089 207.300 C 171.178 206.585,171.178 205.415,171.089 204.700 C 171.001 203.985,170.928 204.570,170.928 206.000 M238.514 208.200 C 238.517 209.300,238.595 209.703,238.687 209.095 C 238.779 208.486,238.777 207.586,238.682 207.095 C 238.587 206.603,238.511 207.100,238.514 208.200 M99.328 213.600 C 99.328 215.030,99.401 215.615,99.489 214.900 C 99.578 214.185,99.578 213.015,99.489 212.300 C 99.401 211.585,99.328 212.170,99.328 213.600 M92.109 214.000 C 92.109 214.990,92.187 215.395,92.282 214.900 C 92.378 214.405,92.378 213.595,92.282 213.100 C 92.187 212.605,92.109 213.010,92.109 214.000 M177.728 218.400 C 177.728 219.830,177.801 220.415,177.889 219.700 C 177.978 218.985,177.978 217.815,177.889 217.100 C 177.801 216.385,177.728 216.970,177.728 218.400 M170.501 217.800 C 170.505 218.680,170.587 218.993,170.683 218.495 C 170.779 217.998,170.775 217.278,170.675 216.895 C 170.575 216.513,170.496 216.920,170.501 217.800 M104.931 223.800 C 104.933 225.340,105.005 225.921,105.092 225.091 C 105.179 224.261,105.177 223.001,105.089 222.291 C 105.000 221.581,104.929 222.260,104.931 223.800 M160.509 223.600 C 160.509 224.590,160.587 224.995,160.682 224.500 C 160.778 224.005,160.778 223.195,160.682 222.700 C 160.587 222.205,160.509 222.610,160.509 223.600 M188.114 223.800 C 188.117 224.900,188.195 225.303,188.287 224.695 C 188.379 224.086,188.377 223.186,188.282 222.695 C 188.187 222.203,188.111 222.700,188.114 223.800 M326.403 234.596 C 326.099 234.963,325.556 235.104,324.992 234.962 C 323.930 234.696,317.175 235.891,307.800 238.005 C 305.717 238.475,299.822 239.646,291.600 241.224 C 287.970 241.920,283.990 242.744,282.755 243.054 C 281.521 243.364,279.091 243.878,277.355 244.196 C 271.947 245.187,265.909 246.360,263.200 246.945 C 255.888 248.525,242.177 251.292,239.045 251.821 C 237.089 252.151,235.339 252.514,235.156 252.627 C 234.972 252.741,233.332 253.113,231.511 253.455 C 229.690 253.796,226.940 254.330,225.400 254.640 C 223.860 254.950,221.131 255.462,219.336 255.777 C 217.541 256.092,215.381 256.532,214.536 256.754 C 212.580 257.269,193.319 261.181,190.400 261.656 C 189.190 261.853,186.220 262.449,183.800 262.979 C 177.286 264.407,171.682 265.561,169.199 265.986 C 166.487 266.449,158.664 268.030,147.200 270.431 C 144.890 270.915,141.830 271.538,140.400 271.816 C 138.970 272.095,136.000 272.702,133.800 273.166 C 131.600 273.631,127.550 274.451,124.800 274.989 C 111.441 277.603,99.223 280.157,97.411 280.714 C 96.305 281.054,94.950 281.329,94.400 281.326 C 93.498 281.321,93.488 281.336,94.300 281.487 C 94.795 281.578,95.200 281.811,95.200 282.004 C 95.200 282.549,99.737 287.790,103.968 292.133 C 124.523 313.229,153.664 327.596,182.600 330.898 C 192.703 332.051,213.999 331.450,222.400 329.775 C 224.050 329.446,226.390 328.983,227.600 328.747 C 232.835 327.722,244.452 324.058,249.000 321.997 C 250.320 321.399,251.850 320.775,252.400 320.611 C 256.310 319.446,278.564 306.192,280.596 303.818 C 280.818 303.559,281.990 302.552,283.200 301.581 C 290.616 295.629,298.498 287.401,304.872 278.956 C 307.693 275.217,312.000 268.904,312.000 268.506 C 312.000 268.406,312.335 267.846,312.743 267.262 C 313.477 266.213,314.494 264.409,317.359 259.066 C 318.166 257.563,319.734 254.143,320.844 251.466 C 321.954 248.790,323.101 246.060,323.392 245.400 C 324.053 243.902,325.809 238.272,326.200 236.400 C 326.361 235.630,326.674 234.775,326.895 234.500 C 327.117 234.225,327.208 234.000,327.098 234.000 C 326.988 234.000,326.675 234.268,326.403 234.596 M83.293 241.600 C 83.293 242.370,83.375 242.685,83.476 242.300 C 83.576 241.915,83.576 241.285,83.476 240.900 C 83.375 240.515,83.293 240.830,83.293 241.600 M111.196 243.882 C 111.088 245.687,111.143 247.020,111.319 246.843 C 111.494 246.667,111.582 245.190,111.515 243.561 L 111.393 240.600 111.196 243.882 M76.093 242.400 C 76.093 243.170,76.175 243.485,76.276 243.100 C 76.376 242.715,76.376 242.085,76.276 241.700 C 76.175 241.315,76.093 241.630,76.093 242.400 M260.300 260.087 C 262.432 261.531,262.425 261.646,260.000 265.361 C 257.516 269.166,257.463 268.789,260.801 271.079 C 264.205 273.413,264.412 273.921,262.937 276.301 C 261.437 278.723,261.451 278.722,257.886 276.405 C 256.190 275.303,254.628 274.355,254.415 274.300 C 254.203 274.245,253.077 275.532,251.914 277.160 C 249.076 281.134,248.930 281.203,246.660 279.641 C 245.637 278.937,244.800 278.045,244.800 277.659 C 244.800 277.035,246.905 273.316,247.550 272.800 C 249.428 271.298,248.989 270.361,245.190 267.765 C 241.826 265.467,241.767 265.324,243.225 263.024 C 244.823 260.506,245.268 260.431,247.836 262.249 C 249.042 263.102,250.589 264.147,251.274 264.571 L 252.518 265.343 253.359 264.305 C 253.822 263.734,254.970 262.164,255.911 260.817 C 257.011 259.242,257.797 258.468,258.111 258.651 C 258.380 258.808,259.365 259.454,260.300 260.087 M221.430 267.321 C 223.954 269.061,223.954 268.947,221.438 272.814 C 218.942 276.652,218.902 276.296,222.071 278.448 C 226.083 281.173,226.171 281.312,224.993 283.049 C 224.447 283.853,224.000 284.663,224.000 284.848 C 224.000 286.064,221.909 285.552,218.995 283.622 C 215.420 281.255,215.613 281.204,213.012 285.223 C 210.644 288.884,210.657 288.882,207.294 286.473 C 205.637 285.286,205.614 285.412,208.200 281.635 C 210.931 277.648,211.006 278.099,207.187 275.592 C 203.208 272.979,203.326 273.206,204.677 270.797 C 206.236 268.015,206.614 268.005,210.579 270.644 C 212.465 271.899,214.069 272.852,214.144 272.763 C 214.220 272.673,215.313 271.115,216.574 269.300 C 219.218 265.494,218.942 265.607,221.430 267.321 M180.465 275.642 C 182.844 277.168,182.847 277.358,180.545 280.884 C 178.191 284.491,178.193 284.655,180.617 286.372 C 181.726 287.157,183.147 288.206,183.773 288.702 L 184.913 289.604 183.756 291.463 C 181.938 294.385,181.761 294.403,178.237 292.025 C 174.542 289.532,174.702 289.493,171.835 293.584 L 169.556 296.838 168.078 295.959 C 167.265 295.476,166.192 294.695,165.692 294.224 L 164.785 293.367 166.992 290.011 C 169.713 285.876,169.831 286.510,165.800 283.600 C 161.867 280.761,162.035 281.152,163.700 278.709 C 165.140 276.596,166.003 276.351,167.600 277.600 C 168.150 278.030,168.810 278.386,169.067 278.391 C 169.323 278.396,169.593 278.543,169.667 278.717 C 169.740 278.891,170.486 279.453,171.324 279.964 L 172.848 280.895 173.824 279.978 C 174.361 279.473,174.800 278.907,174.800 278.720 C 174.800 278.178,177.730 274.400,178.150 274.400 C 178.359 274.400,179.401 274.959,180.465 275.642 M39.309 284.000 C 39.309 284.990,39.387 285.395,39.482 284.900 C 39.578 284.405,39.578 283.595,39.482 283.100 C 39.387 282.605,39.309 283.010,39.309 284.000 " stroke="none" fill="#e10807" fill-rule="evenodd"></path><path id="path1" d="M184.200 52.207 C 181.120 52.485,177.340 52.912,175.800 53.156 C 168.573 54.303,165.346 54.904,164.735 55.220 C 164.369 55.409,163.150 55.685,162.026 55.834 C 160.902 55.983,159.885 56.262,159.767 56.453 C 159.649 56.644,159.228 56.800,158.830 56.800 C 157.933 56.800,149.906 59.299,146.400 60.670 C 135.589 64.896,125.261 70.004,119.328 74.058 C 118.408 74.686,117.532 75.200,117.381 75.200 C 117.230 75.200,115.822 76.154,114.253 77.320 C 112.684 78.485,110.410 80.148,109.200 81.014 C 107.990 81.879,106.640 82.928,106.200 83.343 C 105.760 83.758,104.750 84.578,103.956 85.165 C 100.550 87.682,92.823 95.119,87.295 101.200 C 77.219 112.284,67.722 127.446,61.484 142.405 C 59.008 148.342,52.776 157.637,44.455 167.800 C 44.095 168.240,42.735 170.040,41.434 171.800 C 40.133 173.560,37.748 176.741,36.134 178.870 L 33.200 182.739 33.200 237.970 L 33.200 293.200 34.500 293.190 C 35.215 293.185,36.520 293.002,37.400 292.783 C 39.912 292.159,54.011 289.278,63.000 287.551 C 64.100 287.339,67.070 286.732,69.600 286.202 C 76.899 284.671,77.859 284.590,78.327 285.463 C 80.334 289.214,92.878 303.059,99.800 309.165 C 105.948 314.588,119.806 324.800,121.015 324.800 C 121.148 324.800,122.008 325.317,122.928 325.949 C 125.324 327.596,134.617 332.275,140.000 334.546 C 142.530 335.613,144.960 336.644,145.400 336.837 C 145.840 337.030,148.000 337.743,150.200 338.422 C 152.400 339.101,154.560 339.818,155.000 340.015 C 156.153 340.533,163.422 342.417,165.963 342.857 C 167.153 343.063,168.243 343.303,168.385 343.391 C 169.763 344.242,185.769 346.003,194.646 346.279 C 200.473 346.461,215.507 345.591,217.715 344.946 C 218.109 344.831,220.089 344.487,222.115 344.182 C 231.750 342.731,246.560 338.467,254.400 334.887 C 268.492 328.452,273.753 325.501,283.400 318.625 C 285.820 316.900,287.980 315.288,288.200 315.044 C 288.420 314.800,289.320 314.070,290.200 313.421 C 304.024 303.236,320.636 282.479,329.665 264.108 C 332.154 259.043,333.250 257.591,341.381 248.595 C 343.371 246.393,346.260 243.157,347.800 241.404 C 349.340 239.651,351.431 237.313,352.448 236.209 C 353.464 235.104,355.084 233.307,356.048 232.216 C 357.011 231.125,358.385 229.612,359.100 228.855 L 360.400 227.477 360.400 170.739 C 360.400 125.604,360.298 114.004,359.900 114.020 C 359.625 114.031,357.870 114.389,356.000 114.816 C 354.130 115.242,350.530 115.973,348.000 116.439 C 345.470 116.906,343.040 117.438,342.600 117.621 C 342.160 117.805,340.990 118.070,340.000 118.211 C 339.010 118.352,337.570 118.623,336.800 118.814 C 336.030 119.005,333.960 119.454,332.200 119.811 C 330.440 120.168,327.998 120.716,326.774 121.030 C 323.258 121.930,323.203 121.906,321.014 118.495 C 311.759 104.071,297.671 89.391,283.065 78.950 C 261.307 63.395,236.782 54.445,209.800 52.213 C 201.292 51.510,191.959 51.507,184.200 52.207 M217.800 58.769 C 232.103 61.210,244.227 64.621,253.308 68.758 C 273.424 77.923,285.106 86.152,300.886 102.274 C 306.981 108.500,317.231 122.129,316.425 122.935 C 316.015 123.345,311.160 124.361,308.600 124.573 C 307.720 124.645,306.460 124.931,305.800 125.207 C 304.499 125.752,303.817 125.898,296.603 127.175 C 291.031 128.161,291.132 128.206,290.389 124.446 C 289.765 121.290,289.200 120.335,287.646 119.814 C 286.628 119.472,286.181 119.017,285.846 117.980 C 285.420 116.663,285.298 116.591,283.161 116.400 C 280.873 116.196,279.600 115.534,279.600 114.548 C 279.600 114.244,279.159 113.611,278.620 113.142 C 278.081 112.674,277.525 111.767,277.384 111.129 C 277.244 110.490,276.089 106.780,274.817 102.884 C 273.545 98.988,272.266 94.851,271.974 93.692 C 271.426 91.511,270.372 90.123,269.618 90.589 C 269.130 90.891,269.295 94.119,270.263 103.200 C 271.837 117.972,271.593 118.710,264.724 119.968 C 262.016 120.464,259.427 121.016,258.972 121.194 C 258.400 121.417,258.029 121.335,257.772 120.927 C 257.521 120.529,257.441 120.964,257.527 122.269 C 257.940 128.538,253.758 129.725,251.781 123.900 C 251.100 121.895,250.673 121.582,250.075 122.651 C 249.860 123.036,248.830 123.451,247.556 123.667 C 246.370 123.867,244.555 124.176,243.521 124.353 C 242.488 124.529,241.408 124.525,241.121 124.343 C 240.835 124.161,240.129 124.009,239.553 124.006 C 238.453 124.000,237.672 122.107,236.992 117.800 C 236.588 115.242,236.074 114.262,234.613 113.263 C 232.975 112.143,232.626 112.307,231.475 114.732 C 230.615 116.544,229.200 117.490,229.200 116.253 C 229.200 115.409,229.186 115.404,223.600 114.194 C 220.204 113.459,218.387 112.869,217.936 112.356 C 217.017 111.310,216.063 111.411,215.768 112.583 C 215.515 113.594,212.494 116.248,209.630 117.977 C 208.586 118.607,207.860 119.411,207.586 120.241 C 206.887 122.359,204.103 121.774,203.167 119.313 C 202.853 118.487,201.624 118.286,200.949 118.950 C 200.595 119.297,199.795 123.955,200.012 124.400 C 201.233 126.896,201.550 131.600,200.497 131.600 C 199.658 131.600,198.991 129.695,198.320 125.383 C 197.977 123.176,197.679 122.352,197.164 122.189 C 196.782 122.067,195.610 121.082,194.559 119.998 C 193.064 118.457,192.530 118.126,192.107 118.477 C 191.348 119.107,191.012 118.580,190.403 115.800 C 190.114 114.480,189.363 112.475,188.734 111.344 C 188.106 110.213,187.694 109.020,187.820 108.692 C 187.961 108.325,187.581 107.730,186.830 107.142 C 185.931 106.439,185.517 105.687,185.254 104.280 C 184.328 99.320,180.770 99.694,181.393 104.685 C 181.567 106.072,181.494 107.290,181.195 108.013 C 180.833 108.887,180.832 109.485,181.192 110.576 C 181.544 111.643,181.549 112.342,181.212 113.365 C 180.856 114.442,180.901 115.418,181.424 118.001 C 182.174 121.700,181.930 122.461,180.242 121.692 C 179.388 121.303,179.180 121.371,178.622 122.223 C 177.839 123.418,175.719 123.596,175.319 122.500 C 174.872 121.275,173.809 120.130,173.282 120.306 C 172.497 120.568,171.600 119.612,171.600 118.514 C 171.600 117.883,171.872 117.454,172.350 117.329 C 173.158 117.118,172.884 114.465,171.937 113.324 C 171.042 112.245,169.122 111.567,168.475 112.101 C 166.619 113.632,165.870 118.603,167.536 118.329 C 169.181 118.059,169.876 120.276,168.461 121.277 C 168.054 121.565,167.588 122.520,167.424 123.399 C 167.260 124.279,166.918 125.131,166.663 125.293 C 165.984 125.725,164.087 125.664,163.800 125.200 C 163.424 124.592,162.800 124.723,162.800 125.410 C 162.800 126.605,156.622 128.073,152.285 127.907 C 150.125 127.824,149.418 127.937,149.178 128.400 C 149.008 128.730,148.391 130.033,147.807 131.296 L 146.746 133.591 147.355 136.696 C 148.206 141.032,148.292 142.502,147.702 142.699 C 147.429 142.790,147.044 142.441,146.846 141.922 C 146.649 141.404,145.028 139.490,143.244 137.669 C 141.312 135.698,140.000 134.027,140.000 133.537 C 140.000 131.079,138.714 127.761,137.213 126.349 C 136.365 125.551,135.380 124.336,135.025 123.649 C 134.195 122.043,132.906 121.964,132.587 123.500 C 132.461 124.105,131.991 125.544,131.542 126.697 C 130.727 128.793,130.691 130.899,131.415 134.304 C 132.013 137.120,129.352 137.450,127.965 134.731 C 126.574 132.006,125.717 132.105,125.370 135.032 C 125.242 136.114,124.992 137.360,124.816 137.800 C 124.640 138.240,124.322 139.048,124.109 139.596 C 123.734 140.563,123.697 140.535,122.869 138.663 C 122.400 137.603,121.607 136.220,121.108 135.592 C 120.609 134.964,119.870 133.979,119.466 133.404 C 117.652 130.821,116.682 136.333,117.829 142.707 C 118.335 145.516,118.402 146.704,118.084 147.215 C 117.846 147.596,117.747 148.274,117.864 148.721 C 118.444 150.942,118.335 150.962,104.937 151.050 C 88.665 151.156,80.400 152.072,80.400 153.768 C 80.400 154.237,82.757 157.381,84.895 159.766 C 85.969 160.963,86.189 162.062,85.439 162.482 C 85.081 162.682,84.475 163.172,84.094 163.569 C 83.712 163.966,82.972 164.515,82.448 164.787 C 81.527 165.267,81.505 165.389,81.763 168.566 C 82.095 172.660,82.494 172.426,71.800 174.403 C 70.480 174.647,68.860 175.008,68.200 175.206 C 65.318 176.068,58.308 177.266,58.010 176.948 C 56.163 174.976,64.436 148.624,71.020 135.505 C 92.930 91.853,134.631 63.242,184.000 57.989 C 190.032 57.347,212.507 57.866,217.800 58.769 M185.200 106.076 C 185.200 106.474,184.930 106.800,184.600 106.800 C 184.270 106.800,183.997 106.575,183.994 106.300 C 183.989 105.943,183.887 105.959,183.634 106.358 C 183.166 107.098,182.000 106.621,182.000 105.690 C 182.000 104.631,184.029 103.916,184.700 104.739 C 184.975 105.077,185.200 105.679,185.200 106.076 M171.200 119.706 C 171.200 120.206,170.966 120.414,170.505 120.325 C 169.730 120.176,169.394 119.110,169.795 118.077 C 170.125 117.224,171.200 118.470,171.200 119.706 M354.400 172.160 L 354.400 222.719 352.700 222.928 C 351.765 223.042,349.740 223.400,348.200 223.723 C 338.569 225.742,332.871 226.924,332.000 227.081 C 331.450 227.181,329.200 227.632,327.000 228.083 C 324.800 228.534,321.830 229.129,320.400 229.405 C 318.970 229.681,315.010 230.486,311.600 231.193 C 305.999 232.355,303.069 232.934,297.600 233.962 C 296.015 234.260,292.541 234.985,285.800 236.425 C 284.700 236.660,282.450 237.109,280.800 237.424 C 276.228 238.294,269.149 239.712,259.000 241.792 C 248.176 244.011,245.808 244.483,241.016 245.383 C 239.045 245.753,237.322 246.125,237.187 246.208 C 237.052 246.291,235.875 246.550,234.571 246.782 C 230.961 247.425,227.600 248.095,215.400 250.606 C 209.240 251.874,203.480 253.041,202.600 253.199 C 201.720 253.358,195.510 254.616,188.800 255.995 C 182.090 257.374,175.790 258.648,174.800 258.826 C 172.133 259.306,157.252 262.347,155.400 262.791 C 154.520 263.002,150.020 263.922,145.400 264.835 C 133.216 267.244,131.680 267.539,128.800 268.029 C 127.370 268.273,125.840 268.622,125.400 268.806 C 124.960 268.990,122.800 269.439,120.600 269.804 C 118.400 270.169,116.060 270.630,115.400 270.829 C 114.740 271.028,111.860 271.641,109.000 272.191 C 106.140 272.740,102.090 273.559,100.000 274.009 C 97.910 274.459,94.040 275.198,91.400 275.651 C 88.760 276.104,86.240 276.617,85.800 276.790 C 85.360 276.964,83.290 277.408,81.200 277.776 C 79.110 278.145,76.770 278.611,76.000 278.812 C 75.230 279.013,70.910 279.902,66.400 280.789 C 61.890 281.675,55.590 282.945,52.400 283.611 C 44.454 285.269,41.990 285.722,40.677 285.764 L 39.555 285.800 39.581 236.630 C 39.595 209.587,39.650 187.418,39.703 187.367 C 39.756 187.315,42.532 186.717,45.871 186.038 C 49.211 185.358,53.171 184.516,54.671 184.166 C 56.172 183.816,58.660 183.286,60.200 182.988 C 61.740 182.689,64.170 182.185,65.600 181.867 C 67.766 181.385,73.633 180.159,82.200 178.398 C 83.080 178.217,86.500 177.492,89.800 176.787 C 93.100 176.081,96.970 175.272,98.400 174.988 C 99.830 174.705,101.900 174.273,103.000 174.028 C 104.100 173.783,106.440 173.316,108.200 172.989 C 109.960 172.662,111.651 172.302,111.957 172.188 C 112.264 172.074,115.954 171.271,120.157 170.403 C 124.361 169.535,130.410 168.270,133.600 167.593 C 136.790 166.916,140.750 166.092,142.400 165.762 C 144.050 165.431,146.120 165.004,147.000 164.812 C 147.880 164.620,149.950 164.183,151.600 163.842 C 155.519 163.030,158.922 162.312,166.000 160.801 C 169.190 160.120,173.060 159.311,174.600 159.003 C 176.140 158.695,179.560 157.973,182.200 157.398 C 184.840 156.824,189.700 155.805,193.000 155.134 C 199.811 153.748,201.433 153.408,209.800 151.608 C 213.100 150.898,216.520 150.180,217.400 150.013 C 220.124 149.496,228.810 147.667,232.800 146.770 C 234.890 146.301,237.770 145.686,239.200 145.404 C 241.775 144.896,245.790 144.056,257.400 141.598 C 260.700 140.899,264.660 140.079,266.200 139.776 C 267.740 139.472,270.260 138.939,271.800 138.591 C 273.340 138.242,277.210 137.424,280.400 136.772 C 287.171 135.389,287.982 135.219,295.400 133.631 C 298.480 132.971,303.520 131.956,306.600 131.375 C 309.680 130.794,312.560 130.172,313.000 129.991 C 313.440 129.811,314.430 129.568,315.200 129.451 C 316.499 129.253,322.345 128.052,329.000 126.617 C 330.540 126.284,333.150 125.730,334.800 125.384 C 336.450 125.038,338.520 124.596,339.400 124.401 C 340.280 124.205,342.800 123.664,345.000 123.197 C 347.200 122.730,349.630 122.198,350.400 122.015 C 351.170 121.832,352.385 121.664,353.100 121.641 L 354.400 121.600 354.400 172.160 M118.513 156.100 C 118.425 156.265,118.183 156.400,117.976 156.400 C 117.531 156.400,117.468 154.665,117.898 154.235 C 118.220 153.913,118.778 155.605,118.513 156.100 M308.800 155.991 C 308.250 156.181,306.900 156.513,305.800 156.728 C 297.540 158.343,296.962 159.646,296.617 177.400 C 296.480 184.440,296.193 192.919,295.980 196.243 C 295.340 206.221,297.308 208.388,305.800 207.055 C 317.010 205.295,317.921 203.895,318.444 187.622 C 319.384 158.324,319.375 160.751,318.551 159.035 C 317.150 156.117,312.567 154.686,308.800 155.991 M279.361 161.991 C 272.710 163.437,270.398 164.793,268.647 168.275 C 267.762 170.033,267.298 176.580,266.991 191.600 C 266.850 198.530,266.579 206.450,266.390 209.200 C 265.977 215.175,265.906 215.066,269.778 214.404 C 273.690 213.735,273.452 214.343,273.742 204.236 C 273.881 199.416,274.084 195.383,274.194 195.273 C 274.409 195.058,280.683 193.625,281.480 193.610 C 281.846 193.602,281.902 195.729,281.717 202.600 C 281.440 212.869,281.036 211.917,285.371 211.207 C 288.543 210.688,288.485 210.802,288.656 204.727 C 288.738 201.797,288.982 195.440,289.198 190.600 C 290.535 160.678,290.178 159.639,279.361 161.991 M311.570 162.964 C 312.043 163.533,311.990 167.758,311.233 190.117 C 310.901 199.894,310.921 199.831,307.939 200.460 C 303.937 201.303,302.652 201.362,302.910 200.691 C 303.042 200.346,303.264 193.794,303.403 186.132 C 303.845 161.809,303.687 163.157,306.142 162.677 C 308.229 162.269,311.120 162.421,311.570 162.964 M251.000 167.787 C 249.900 168.081,246.992 168.724,244.539 169.217 C 239.253 170.279,239.601 169.678,239.598 177.750 C 239.597 180.638,239.427 186.780,239.220 191.400 C 239.014 196.020,238.723 204.537,238.575 210.327 L 238.305 220.854 239.852 220.593 C 240.704 220.450,241.940 220.179,242.600 219.991 C 243.260 219.803,245.870 219.258,248.400 218.780 C 258.960 216.784,260.256 215.371,260.806 205.251 C 261.844 186.147,261.926 172.190,261.011 170.420 C 259.584 167.662,255.499 166.587,251.000 167.787 M282.196 168.654 C 282.920 169.377,282.694 186.179,281.950 186.982 C 281.755 187.192,280.033 187.687,278.122 188.082 C 274.050 188.924,273.947 188.858,274.213 185.603 C 274.312 184.391,274.504 180.552,274.640 177.072 C 274.863 171.363,274.971 170.650,275.743 169.790 C 277.199 168.170,281.037 167.494,282.196 168.654 M225.967 172.960 C 225.875 173.048,222.830 173.719,219.200 174.450 C 215.570 175.182,212.489 175.936,212.354 176.127 C 212.076 176.518,211.746 184.452,211.197 204.000 C 210.989 211.370,210.700 219.445,210.553 221.945 L 210.286 226.491 212.422 226.197 C 218.072 225.420,217.887 225.821,217.953 214.176 C 218.006 204.616,218.044 204.483,220.784 204.312 C 222.533 204.202,222.573 204.227,222.840 205.600 C 222.990 206.370,223.398 208.440,223.748 210.200 C 224.098 211.960,224.804 215.560,225.317 218.200 C 225.830 220.840,226.418 222.996,226.625 222.992 C 228.045 222.960,231.897 222.317,232.347 222.037 C 233.103 221.564,232.287 216.369,229.828 206.000 C 229.073 202.816,229.032 201.200,229.706 201.200 C 234.138 201.200,235.480 175.613,231.166 173.382 C 230.158 172.861,226.388 172.555,225.967 172.960 M254.232 174.452 C 254.625 175.088,254.434 188.302,253.855 200.495 C 253.299 212.217,253.523 211.592,249.600 212.373 C 248.390 212.614,246.995 212.920,246.500 213.052 C 245.442 213.336,245.298 209.384,245.998 199.237 C 246.201 196.288,246.410 190.888,246.461 187.237 C 246.512 183.587,246.623 179.327,246.707 177.771 L 246.860 174.941 248.530 174.530 C 250.867 173.955,253.899 173.914,254.232 174.452 M204.346 177.387 C 204.184 177.549,190.610 180.389,189.961 180.397 C 189.571 180.402,187.746 230.679,188.122 231.055 C 188.251 231.184,194.855 229.929,198.800 229.026 C 200.230 228.699,202.030 228.321,202.800 228.186 C 205.705 227.676,205.600 227.812,205.600 224.573 L 205.600 221.600 204.280 221.600 C 203.554 221.600,202.789 221.756,202.580 221.946 C 202.085 222.397,196.011 223.344,195.687 223.020 C 195.309 222.642,195.621 207.460,196.017 206.981 C 196.208 206.750,198.266 206.224,200.592 205.811 C 205.375 204.961,205.340 204.997,205.124 201.182 C 204.994 198.898,204.411 198.342,202.877 199.040 C 202.006 199.437,196.681 200.342,196.343 200.152 C 196.202 200.072,196.130 199.150,196.183 198.103 C 196.236 197.056,196.309 193.950,196.346 191.200 C 196.426 185.131,196.340 185.279,200.243 184.543 C 207.222 183.225,207.184 183.253,207.195 179.300 L 207.200 177.200 205.867 177.200 C 205.133 177.200,204.449 177.284,204.346 177.387 M225.983 180.180 C 226.995 181.399,226.371 195.356,225.250 196.547 C 224.324 197.532,219.482 199.021,218.725 198.554 C 218.294 198.287,218.371 193.946,218.938 186.633 L 219.400 180.666 221.200 180.185 C 223.740 179.507,225.423 179.505,225.983 180.180 M181.600 182.084 C 180.830 182.310,176.901 183.161,172.869 183.975 C 164.629 185.638,164.815 185.519,164.806 189.150 L 164.800 191.700 166.079 191.444 C 166.782 191.304,168.332 191.074,169.523 190.934 L 171.688 190.680 171.446 195.640 C 171.313 198.368,171.021 206.720,170.796 214.200 C 170.572 221.680,170.322 229.299,170.241 231.131 C 170.067 235.074,170.004 235.025,174.000 234.087 L 177.000 233.383 177.269 228.991 C 177.693 222.059,178.410 201.845,178.405 196.956 C 178.402 194.512,178.512 191.692,178.650 190.690 L 178.899 188.868 181.150 188.467 C 185.522 187.688,185.600 187.617,185.600 184.410 L 185.600 181.600 184.300 181.636 C 183.585 181.656,182.370 181.857,181.600 182.084 M152.980 187.935 C 152.771 188.120,151.341 188.492,149.803 188.763 C 141.883 190.157,140.000 193.475,140.000 206.032 C 140.000 214.518,139.705 214.087,147.354 216.775 C 154.113 219.151,153.703 218.570,153.427 225.400 C 153.168 231.784,152.840 232.435,149.632 232.948 C 147.127 233.349,146.400 232.778,146.400 230.410 C 146.400 227.956,146.453 227.980,142.600 228.756 L 139.400 229.400 139.283 232.515 C 139.033 239.155,141.393 240.723,149.237 239.128 C 159.058 237.131,160.161 235.544,160.589 222.800 L 160.864 214.600 159.716 213.506 C 158.672 212.511,154.741 210.867,151.856 210.219 C 147.149 209.163,146.741 208.394,147.188 201.425 C 147.537 195.976,148.032 195.135,151.202 194.600 C 153.717 194.175,154.400 195.000,154.400 198.462 C 154.400 201.593,154.207 201.489,158.252 200.543 L 161.103 199.877 161.348 197.838 C 161.975 192.621,161.424 190.421,159.031 188.597 C 157.689 187.573,153.864 187.155,152.980 187.935 M130.239 192.744 C 126.482 193.524,126.842 192.956,124.988 201.000 C 124.176 204.520,123.356 207.940,123.165 208.600 C 122.975 209.260,122.065 212.939,121.144 216.775 L 119.469 223.751 118.982 221.975 C 118.713 220.999,117.452 214.825,116.179 208.256 L 113.865 196.312 111.632 196.567 C 105.762 197.236,105.706 197.336,105.625 207.400 C 105.600 210.480,105.318 219.120,104.999 226.600 C 104.679 234.080,104.414 242.047,104.409 244.305 L 104.400 248.409 106.066 248.143 C 106.982 247.997,108.467 247.660,109.366 247.396 L 111.000 246.915 111.258 243.358 C 111.399 241.401,111.534 234.546,111.558 228.124 C 111.584 220.818,111.750 216.355,112.000 216.200 C 112.228 216.059,112.400 216.403,112.400 216.997 C 112.400 217.572,112.671 219.338,113.003 220.921 C 113.334 222.504,113.776 224.610,113.985 225.600 C 114.193 226.590,114.743 229.380,115.207 231.800 C 116.227 237.121,116.063 236.936,119.205 236.309 L 121.753 235.800 122.446 232.800 C 122.828 231.150,123.698 227.550,124.379 224.800 C 125.060 222.050,125.862 218.720,126.161 217.400 C 127.541 211.304,127.790 214.903,126.796 226.600 C 126.591 229.020,126.299 233.862,126.148 237.360 L 125.874 243.720 128.037 243.440 C 129.227 243.287,130.848 242.990,131.639 242.781 L 133.078 242.402 133.324 234.701 C 133.459 230.465,133.751 220.520,133.973 212.600 C 134.195 204.680,134.476 196.805,134.598 195.100 C 134.853 191.519,135.210 191.712,130.239 192.744 M90.400 201.000 C 77.984 203.087,77.526 203.883,76.824 224.600 C 75.672 258.604,75.238 254.433,79.833 253.540 C 83.287 252.870,83.194 253.051,83.242 246.851 C 83.266 243.853,83.401 239.788,83.542 237.817 L 83.800 234.234 87.379 233.515 C 91.858 232.616,91.519 231.841,91.238 242.328 L 91.000 251.256 92.000 251.038 C 92.550 250.918,94.104 250.598,95.453 250.327 L 97.906 249.835 98.145 247.418 C 98.406 244.781,99.162 220.860,99.308 210.600 C 99.448 200.819,98.373 199.660,90.400 201.000 M91.794 207.851 C 92.376 208.433,92.353 225.668,91.768 226.345 C 91.674 226.455,84.614 227.975,84.100 227.996 C 83.888 228.005,84.065 217.990,84.350 213.915 C 84.692 209.009,85.104 208.251,87.750 207.657 C 90.242 207.096,91.079 207.137,91.794 207.851 M334.389 235.500 C 322.296 280.897,287.579 317.823,242.600 333.130 C 233.507 336.224,225.326 338.070,214.800 339.401 C 192.471 342.226,162.545 338.375,145.000 330.420 C 144.560 330.220,142.220 329.191,139.800 328.133 C 133.584 325.415,120.849 318.421,120.467 317.516 C 120.393 317.342,120.170 317.200,119.971 317.200 C 119.306 317.200,111.680 311.584,105.676 306.672 C 99.576 301.682,84.400 285.289,84.400 283.690 C 84.400 283.222,90.938 281.615,93.785 281.383 C 94.893 281.293,96.610 280.967,97.600 280.659 C 99.227 280.153,111.732 277.546,124.800 274.989 C 127.550 274.451,131.600 273.631,133.800 273.166 C 136.000 272.702,138.970 272.095,140.400 271.816 C 141.830 271.538,144.890 270.915,147.200 270.431 C 158.664 268.030,166.487 266.449,169.199 265.986 C 171.682 265.561,177.286 264.407,183.800 262.979 C 186.220 262.449,189.190 261.853,190.400 261.656 C 193.319 261.181,212.580 257.269,214.536 256.754 C 215.381 256.532,217.541 256.092,219.336 255.777 C 221.131 255.462,223.860 254.950,225.400 254.640 C 226.940 254.330,229.690 253.796,231.511 253.455 C 233.332 253.113,234.972 252.741,235.156 252.627 C 235.339 252.514,237.089 252.151,239.045 251.821 C 242.177 251.292,255.888 248.525,263.200 246.945 C 265.909 246.360,271.947 245.187,277.355 244.196 C 279.091 243.878,281.521 243.364,282.755 243.054 C 283.990 242.744,287.970 241.920,291.600 241.224 C 299.822 239.646,305.717 238.475,307.800 238.005 C 317.019 235.926,323.942 234.692,324.929 234.950 C 325.392 235.071,326.047 234.936,326.385 234.651 C 326.723 234.366,328.080 233.902,329.400 233.621 C 330.720 233.340,331.980 233.054,332.200 232.987 C 332.420 232.919,333.164 232.849,333.854 232.832 L 335.109 232.800 334.389 235.500 " stroke="none" fill="#0c0808" fill-rule="evenodd"></path><path id="path2" d="M184.400 49.631 C 183.630 49.823,181.110 50.100,178.800 50.246 C 176.490 50.392,174.114 50.756,173.520 51.056 C 172.926 51.355,171.306 51.606,169.920 51.614 C 168.494 51.622,166.966 51.877,166.400 52.200 C 165.850 52.514,164.759 52.778,163.976 52.786 C 163.194 52.794,162.204 53.064,161.776 53.387 C 161.349 53.710,160.370 53.986,159.600 54.000 C 158.830 54.014,157.851 54.290,157.424 54.613 C 156.996 54.936,156.086 55.200,155.400 55.200 C 154.714 55.200,153.804 55.464,153.376 55.787 C 152.949 56.110,152.037 56.380,151.349 56.387 C 150.661 56.394,149.893 56.647,149.643 56.948 C 149.393 57.250,148.445 57.596,147.536 57.718 C 146.628 57.840,145.770 58.125,145.630 58.351 C 145.490 58.577,144.628 58.882,143.713 59.028 C 142.798 59.175,141.954 59.543,141.837 59.847 C 141.721 60.151,141.164 60.400,140.600 60.400 C 140.036 60.400,139.471 60.670,139.345 61.000 C 139.213 61.344,138.615 61.600,137.945 61.600 C 137.274 61.600,136.677 61.856,136.545 62.200 C 136.402 62.572,135.793 62.800,134.945 62.800 C 134.096 62.800,133.487 63.028,133.345 63.400 C 133.218 63.730,132.678 64.000,132.145 64.000 C 131.611 64.000,131.071 64.270,130.945 64.600 C 130.818 64.930,130.306 65.200,129.806 65.200 C 129.307 65.200,128.674 65.470,128.400 65.800 C 128.126 66.130,127.558 66.400,127.138 66.400 C 126.719 66.400,126.271 66.670,126.145 67.000 C 126.018 67.330,125.478 67.600,124.945 67.600 C 124.411 67.600,123.871 67.870,123.745 68.200 C 123.618 68.530,123.168 68.800,122.745 68.800 C 122.321 68.800,121.871 69.070,121.745 69.400 C 121.618 69.730,121.201 70.000,120.818 70.000 C 120.436 70.000,119.707 70.360,119.200 70.800 C 118.693 71.240,118.035 71.600,117.739 71.600 C 117.442 71.600,117.200 71.784,117.200 72.010 C 117.200 72.235,116.750 72.591,116.200 72.800 C 115.650 73.009,115.200 73.365,115.200 73.590 C 115.200 73.816,114.880 74.000,114.489 74.000 C 114.098 74.000,113.187 74.540,112.464 75.200 C 111.742 75.860,110.911 76.400,110.618 76.400 C 110.325 76.400,109.982 76.670,109.855 77.000 C 109.729 77.330,109.394 77.605,109.113 77.611 C 108.831 77.617,108.075 78.157,107.433 78.811 C 106.792 79.465,106.087 80.000,105.868 80.000 C 105.648 80.000,104.283 81.040,102.834 82.312 C 101.386 83.584,99.728 84.923,99.151 85.288 C 97.588 86.277,82.400 101.576,82.400 102.161 C 82.400 102.280,81.593 103.237,80.607 104.288 C 79.621 105.340,78.811 106.425,78.807 106.700 C 78.803 106.975,78.616 107.200,78.390 107.200 C 78.165 107.200,77.809 107.650,77.600 108.200 C 77.391 108.750,77.035 109.200,76.810 109.200 C 76.584 109.200,76.400 109.451,76.400 109.757 C 76.400 110.064,76.130 110.418,75.800 110.545 C 75.470 110.671,75.200 111.146,75.200 111.600 C 75.200 112.054,74.930 112.529,74.600 112.655 C 74.270 112.782,74.000 113.046,74.000 113.243 C 74.000 113.439,73.685 113.947,73.300 114.371 C 72.405 115.358,72.026 115.862,70.800 117.697 C 70.250 118.521,69.683 119.196,69.539 119.197 C 69.396 119.199,69.080 119.695,68.838 120.300 C 68.596 120.905,68.040 121.940,67.603 122.600 C 67.166 123.260,66.704 124.070,66.576 124.400 C 66.447 124.730,66.174 125.270,65.969 125.600 C 65.763 125.930,65.475 126.470,65.328 126.800 C 65.181 127.130,64.822 127.544,64.530 127.720 C 64.239 127.896,64.000 128.571,64.000 129.220 C 64.000 130.002,63.798 130.400,63.400 130.400 C 62.981 130.400,62.800 130.822,62.800 131.800 C 62.800 132.778,62.619 133.200,62.200 133.200 C 61.805 133.200,61.600 133.595,61.600 134.357 C 61.600 135.017,61.342 135.613,61.000 135.745 C 60.670 135.871,60.400 136.411,60.400 136.945 C 60.400 137.478,60.130 138.018,59.800 138.145 C 59.470 138.271,59.200 138.679,59.200 139.051 C 59.200 139.677,56.478 145.549,55.979 146.000 C 55.857 146.110,55.330 146.920,54.807 147.800 C 54.284 148.680,53.158 150.210,52.303 151.200 C 51.449 152.190,50.626 153.190,50.475 153.422 C 49.573 154.805,49.124 155.556,48.415 156.863 C 47.978 157.668,47.471 158.388,47.287 158.463 C 47.104 158.538,46.346 159.500,45.603 160.600 C 44.860 161.700,44.142 162.690,44.007 162.800 C 43.411 163.284,36.400 172.863,36.400 173.193 C 36.400 173.395,36.170 173.704,35.890 173.880 C 35.609 174.056,34.408 175.640,33.219 177.400 L 31.059 180.600 30.985 229.000 C 30.944 255.620,30.748 280.820,30.548 285.000 C 30.199 292.311,30.363 294.626,31.322 295.900 C 31.844 296.594,36.800 296.546,38.692 295.828 C 40.416 295.174,46.188 294.000,47.677 294.000 C 48.226 294.000,49.658 293.662,50.860 293.248 C 52.061 292.835,54.160 292.367,55.523 292.209 C 56.886 292.051,58.093 291.773,58.205 291.592 C 58.317 291.411,59.571 291.138,60.993 290.986 C 62.414 290.834,63.785 290.460,64.038 290.155 C 64.342 289.788,65.362 289.600,67.049 289.600 C 69.050 289.600,69.600 289.471,69.600 289.000 C 69.600 287.991,74.859 288.160,75.800 289.200 C 76.198 289.640,76.766 290.000,77.062 290.000 C 77.358 290.000,77.600 290.270,77.600 290.600 C 77.600 290.930,77.870 291.200,78.200 291.200 C 78.530 291.200,78.800 291.491,78.800 291.846 C 78.800 292.617,93.876 307.608,99.000 311.932 C 100.980 313.603,102.960 315.311,103.400 315.728 C 103.840 316.145,104.830 316.897,105.600 317.400 C 106.370 317.902,107.720 318.963,108.600 319.756 C 109.480 320.550,110.515 321.200,110.900 321.200 C 111.285 321.200,111.600 321.384,111.600 321.610 C 111.600 321.835,112.050 322.191,112.600 322.400 C 113.150 322.609,113.600 322.965,113.600 323.190 C 113.600 323.416,113.941 323.600,114.357 323.600 C 114.774 323.600,115.218 323.870,115.345 324.200 C 115.471 324.530,115.941 324.800,116.387 324.800 C 116.834 324.800,117.200 324.984,117.200 325.210 C 117.200 325.435,117.650 325.791,118.200 326.000 C 118.750 326.209,119.200 326.550,119.200 326.758 C 119.200 326.966,119.740 327.255,120.400 327.400 C 121.060 327.545,121.600 327.800,121.600 327.966 C 121.600 328.133,122.594 328.772,123.809 329.387 C 125.023 330.001,126.114 330.661,126.232 330.852 C 126.350 331.043,126.802 331.200,127.236 331.200 C 127.670 331.200,128.129 331.470,128.255 331.800 C 128.387 332.142,128.983 332.400,129.643 332.400 C 130.405 332.400,130.800 332.605,130.800 333.000 C 130.800 333.400,131.200 333.600,132.000 333.600 C 132.800 333.600,133.200 333.800,133.200 334.200 C 133.200 334.619,133.622 334.800,134.600 334.800 C 135.578 334.800,136.000 334.981,136.000 335.400 C 136.000 335.815,136.417 336.000,137.357 336.000 C 138.195 336.000,138.803 336.230,138.945 336.600 C 139.080 336.953,139.680 337.200,140.400 337.200 C 141.120 337.200,141.720 337.447,141.855 337.800 C 141.990 338.151,142.589 338.400,143.299 338.400 C 143.966 338.400,144.712 338.664,144.956 338.988 C 145.200 339.311,146.070 339.617,146.888 339.669 C 147.707 339.720,148.457 339.973,148.556 340.230 C 148.655 340.488,149.373 340.818,150.151 340.964 C 150.929 341.110,152.069 341.492,152.683 341.812 C 153.297 342.133,154.261 342.396,154.824 342.398 C 155.386 342.399,156.196 342.664,156.624 342.987 C 157.051 343.310,157.874 343.580,158.454 343.587 C 159.034 343.594,160.024 343.869,160.654 344.198 C 161.284 344.526,162.453 344.796,163.251 344.798 C 164.049 344.799,165.349 345.070,166.138 345.400 C 166.928 345.730,168.352 346.000,169.303 346.000 C 170.254 346.000,172.069 346.270,173.335 346.600 C 174.602 346.930,176.604 347.200,177.784 347.200 C 178.964 347.200,181.340 347.470,183.065 347.800 C 187.519 348.652,209.224 348.652,212.400 347.800 C 213.610 347.475,215.703 347.207,217.051 347.205 C 218.399 347.202,220.149 346.930,220.938 346.600 C 221.728 346.270,223.258 346.000,224.338 346.000 C 225.419 346.000,226.949 345.730,227.738 345.400 C 228.528 345.070,230.067 344.800,231.159 344.800 C 232.389 344.800,233.371 344.572,233.743 344.200 C 234.085 343.858,235.085 343.594,236.071 343.586 C 237.022 343.578,238.250 343.314,238.800 343.000 C 239.350 342.686,240.250 342.421,240.800 342.412 C 241.350 342.403,242.303 342.133,242.917 341.812 C 243.531 341.492,244.671 341.110,245.449 340.964 C 246.227 340.818,246.945 340.488,247.044 340.230 C 247.143 339.973,247.893 339.720,248.712 339.669 C 249.530 339.617,250.400 339.311,250.644 338.988 C 250.893 338.658,251.733 338.400,252.557 338.400 C 253.493 338.400,254.109 338.183,254.255 337.800 C 254.398 337.428,255.007 337.200,255.855 337.200 C 256.704 337.200,257.313 336.972,257.455 336.600 C 257.582 336.270,258.122 336.000,258.655 336.000 C 259.189 336.000,259.729 335.730,259.855 335.400 C 259.982 335.070,260.522 334.800,261.055 334.800 C 261.589 334.800,262.129 334.530,262.255 334.200 C 262.385 333.863,262.980 333.600,263.614 333.600 C 264.235 333.600,265.013 333.330,265.343 333.000 C 265.673 332.670,266.213 332.400,266.543 332.400 C 266.873 332.400,267.388 332.175,267.688 331.900 C 268.442 331.209,269.620 330.475,270.763 329.985 C 271.292 329.758,272.516 329.038,273.483 328.386 C 274.449 327.734,275.389 327.200,275.571 327.200 C 275.753 327.200,276.126 326.930,276.400 326.600 C 276.674 326.270,277.236 326.000,277.649 326.000 C 278.062 326.000,278.400 325.730,278.400 325.400 C 278.400 325.064,278.757 324.800,279.213 324.800 C 279.659 324.800,280.129 324.530,280.255 324.200 C 280.382 323.870,280.807 323.600,281.200 323.600 C 281.593 323.600,282.018 323.330,282.145 323.000 C 282.271 322.670,282.642 322.400,282.968 322.400 C 283.294 322.400,283.704 322.165,283.880 321.878 C 284.056 321.592,285.044 320.795,286.076 320.108 C 288.384 318.572,290.533 317.067,290.800 316.800 C 290.910 316.690,292.260 315.532,293.800 314.228 C 295.340 312.923,296.788 311.663,297.017 311.428 C 297.247 311.192,299.665 308.840,302.391 306.200 C 307.088 301.652,312.103 296.250,315.200 292.403 C 315.970 291.446,317.095 290.086,317.700 289.379 C 318.305 288.673,318.800 287.893,318.800 287.647 C 318.800 287.401,318.984 287.200,319.210 287.200 C 319.435 287.200,319.795 286.795,320.009 286.300 C 320.587 284.964,321.273 283.984,322.500 282.741 C 323.105 282.128,323.600 281.370,323.600 281.056 C 323.600 280.742,323.870 280.382,324.200 280.255 C 324.530 280.129,324.800 279.659,324.800 279.213 C 324.800 278.757,325.064 278.400,325.400 278.400 C 325.775 278.400,326.000 278.021,326.000 277.387 C 326.000 276.831,326.270 276.271,326.600 276.145 C 326.930 276.018,327.200 275.763,327.200 275.577 C 327.200 275.392,327.734 274.449,328.386 273.483 C 329.038 272.516,329.758 271.292,329.985 270.763 C 330.475 269.620,331.209 268.442,331.900 267.688 C 332.175 267.388,332.400 266.815,332.400 266.414 C 332.400 266.013,332.670 265.582,333.000 265.455 C 333.330 265.329,333.600 264.881,333.600 264.462 C 333.600 264.042,333.870 263.474,334.200 263.200 C 334.530 262.926,334.800 262.454,334.800 262.151 C 334.800 261.848,335.070 261.600,335.400 261.600 C 335.730 261.600,336.000 261.330,336.000 261.000 C 336.000 260.670,336.315 260.063,336.700 259.652 C 338.886 257.317,339.600 256.426,339.600 256.036 C 339.600 255.796,339.870 255.600,340.200 255.600 C 340.530 255.600,340.800 255.408,340.800 255.173 C 340.800 254.676,342.775 252.120,344.846 249.938 C 345.641 249.100,347.081 247.388,348.046 246.135 C 349.760 243.909,351.041 242.497,356.153 237.200 C 358.843 234.413,362.400 229.734,362.400 228.981 C 362.400 228.729,362.707 227.910,363.083 227.161 C 364.255 224.823,364.156 114.536,362.980 112.960 C 362.529 112.356,361.899 111.741,361.580 111.593 C 361.261 111.445,360.597 111.116,360.105 110.862 C 358.983 110.282,357.889 110.271,357.326 110.834 C 357.088 111.072,355.793 111.367,354.449 111.489 C 353.106 111.611,351.803 111.956,351.554 112.255 C 351.266 112.602,350.247 112.800,348.751 112.800 C 346.928 112.800,346.400 112.935,346.400 113.400 C 346.400 113.871,345.850 114.000,343.849 114.000 C 342.069 114.000,341.147 114.181,340.800 114.600 C 340.475 114.991,339.585 115.200,338.240 115.200 C 337.106 115.200,335.823 115.444,335.389 115.742 C 334.955 116.041,333.434 116.387,332.010 116.513 C 330.585 116.638,329.355 116.934,329.277 117.170 C 329.116 117.652,324.800 117.772,324.800 117.295 C 324.800 117.127,324.396 116.812,323.902 116.595 C 323.408 116.378,322.768 115.705,322.480 115.100 C 322.192 114.495,321.786 114.000,321.578 114.000 C 321.370 114.000,321.200 113.739,321.200 113.420 C 321.200 113.101,320.949 112.696,320.642 112.520 C 320.335 112.344,319.686 111.435,319.201 110.500 C 318.716 109.565,318.196 108.800,318.046 108.800 C 317.896 108.800,317.452 108.257,317.060 107.593 C 316.668 106.929,315.730 105.714,314.975 104.893 C 314.221 104.072,313.603 103.175,313.602 102.900 C 313.601 102.625,313.369 102.400,313.086 102.400 C 312.804 102.400,312.276 101.905,311.915 101.300 C 311.246 100.183,299.408 88.464,297.468 87.000 C 296.885 86.560,296.406 85.975,296.404 85.700 C 296.402 85.425,296.201 85.200,295.958 85.200 C 295.715 85.200,295.016 84.795,294.405 84.300 C 293.794 83.805,292.708 82.950,291.992 82.400 C 291.276 81.850,290.405 81.085,290.056 80.700 C 289.708 80.315,289.192 80.000,288.911 80.000 C 288.630 80.000,288.400 79.816,288.400 79.590 C 288.400 79.365,287.995 79.005,287.500 78.791 C 286.155 78.209,285.039 77.461,284.680 76.900 C 284.504 76.625,284.099 76.400,283.780 76.400 C 283.461 76.400,283.200 76.130,283.200 75.800 C 283.200 75.434,282.827 75.200,282.243 75.200 C 281.716 75.200,281.182 74.930,281.055 74.600 C 280.929 74.270,280.632 74.000,280.396 74.000 C 279.987 74.000,277.619 72.478,277.200 71.946 C 276.965 71.647,272.986 69.375,271.739 68.828 C 271.265 68.620,270.760 68.258,270.615 68.025 C 270.471 67.791,270.025 67.600,269.625 67.600 C 269.225 67.600,268.674 67.330,268.400 67.000 C 268.126 66.670,267.586 66.400,267.200 66.400 C 266.814 66.400,266.274 66.130,266.000 65.800 C 265.726 65.470,265.093 65.200,264.594 65.200 C 264.094 65.200,263.582 64.930,263.455 64.600 C 263.329 64.270,262.881 64.000,262.462 64.000 C 262.042 64.000,261.474 63.730,261.200 63.400 C 260.926 63.070,260.293 62.800,259.794 62.800 C 259.294 62.800,258.782 62.530,258.655 62.200 C 258.511 61.823,257.899 61.600,257.013 61.600 C 256.024 61.600,255.600 61.420,255.600 61.000 C 255.600 60.606,255.205 60.400,254.449 60.400 C 253.816 60.400,253.083 60.142,252.821 59.826 C 252.559 59.510,251.817 59.136,251.172 58.994 C 250.528 58.852,250.000 58.587,250.000 58.403 C 250.000 58.220,249.245 57.943,248.323 57.787 C 247.401 57.631,246.398 57.255,246.095 56.952 C 245.791 56.648,245.061 56.394,244.471 56.386 C 243.882 56.378,242.950 56.114,242.400 55.800 C 241.850 55.486,240.860 55.216,240.200 55.201 C 239.540 55.187,238.651 54.910,238.224 54.587 C 237.796 54.264,236.806 53.999,236.024 53.998 C 235.241 53.996,234.084 53.726,233.454 53.398 C 232.824 53.069,231.564 52.794,230.654 52.786 C 229.744 52.778,228.550 52.514,228.000 52.200 C 227.450 51.886,226.258 51.622,225.350 51.614 C 224.443 51.606,222.935 51.330,222.000 51.000 C 221.056 50.667,218.936 50.400,217.234 50.400 C 215.548 50.400,213.131 50.130,211.865 49.800 C 209.262 49.122,186.988 48.985,184.400 49.631 M211.400 52.204 C 220.290 53.020,229.720 54.710,237.000 56.790 C 239.403 57.477,246.088 59.612,247.000 59.985 C 247.440 60.164,250.230 61.259,253.200 62.417 C 259.065 64.704,267.303 68.795,273.000 72.251 C 274.980 73.452,276.960 74.652,277.400 74.917 C 277.840 75.183,278.290 75.490,278.400 75.600 C 278.510 75.710,279.680 76.518,281.000 77.395 C 282.320 78.272,283.490 79.082,283.600 79.196 C 283.710 79.309,284.535 79.900,285.434 80.509 C 286.332 81.118,287.413 81.928,287.835 82.308 C 288.258 82.689,289.953 84.079,291.602 85.397 C 301.453 93.274,315.653 109.337,321.680 119.423 C 323.168 121.913,322.704 121.834,328.400 120.582 C 333.519 119.457,342.512 117.551,344.400 117.191 C 345.390 117.002,348.810 116.289,352.000 115.606 C 355.190 114.923,358.385 114.259,359.100 114.130 L 360.400 113.895 360.400 170.802 L 360.400 227.708 359.500 228.578 C 358.339 229.700,352.820 235.821,350.946 238.065 C 349.568 239.716,345.645 244.070,340.760 249.370 C 338.203 252.144,333.742 257.255,332.692 258.614 C 332.303 259.117,330.837 261.856,329.434 264.700 C 325.398 272.884,315.576 288.156,311.786 292.143 C 311.338 292.615,309.514 294.710,307.732 296.800 C 303.636 301.607,295.275 309.634,291.000 312.865 C 290.340 313.364,289.710 313.882,289.600 314.016 C 288.598 315.235,274.802 324.800,274.046 324.800 C 273.837 324.800,273.607 324.946,273.533 325.124 C 273.280 325.737,262.173 331.631,257.800 333.472 C 256.480 334.028,254.680 334.792,253.800 335.171 C 250.135 336.746,248.780 337.244,244.400 338.621 C 241.870 339.416,239.440 340.222,239.000 340.410 C 237.012 341.264,227.667 343.421,222.800 344.150 C 220.930 344.430,219.130 344.767,218.800 344.900 C 213.726 346.942,185.226 346.522,172.400 344.215 C 165.530 342.980,155.652 340.562,155.020 339.961 C 154.811 339.763,154.347 339.600,153.989 339.600 C 153.294 339.600,146.597 337.483,144.600 336.631 C 143.940 336.350,141.960 335.510,140.200 334.766 C 116.204 324.612,88.916 302.863,77.988 285.180 C 77.678 284.679,77.094 284.753,70.000 286.202 C 68.350 286.540,65.650 287.075,64.000 287.392 C 62.350 287.710,60.100 288.166,59.000 288.406 C 57.900 288.646,55.650 289.100,54.000 289.413 C 52.350 289.727,48.300 290.544,45.000 291.229 C 34.917 293.321,33.811 293.524,33.500 293.335 C 33.335 293.235,33.200 268.247,33.200 237.807 L 33.200 182.461 34.148 181.331 C 34.669 180.709,38.455 175.700,42.561 170.200 C 46.666 164.700,50.301 159.870,50.637 159.467 C 50.974 159.063,51.908 157.803,52.713 156.667 C 53.518 155.530,54.276 154.510,54.397 154.400 C 55.558 153.346,58.901 148.489,59.525 146.950 C 66.510 129.721,73.403 117.816,83.581 105.406 C 90.411 97.077,102.181 85.783,108.800 81.207 C 109.570 80.674,110.290 80.132,110.400 80.002 C 111.057 79.224,124.056 70.800,124.599 70.800 C 124.697 70.800,126.096 70.035,127.708 69.100 C 135.382 64.649,151.727 58.079,157.890 56.968 C 158.720 56.818,159.580 56.556,159.800 56.385 C 160.020 56.215,161.100 55.945,162.200 55.787 C 163.300 55.629,164.380 55.364,164.600 55.200 C 164.820 55.036,165.900 54.776,167.000 54.623 C 168.100 54.471,169.630 54.190,170.400 54.000 C 178.702 51.952,198.978 51.063,211.400 52.204 M185.600 57.847 C 122.236 63.452,70.833 109.886,58.421 172.731 C 57.928 175.224,57.875 177.202,58.300 177.196 C 58.749 177.191,66.495 175.615,67.286 175.369 C 67.698 175.240,68.075 174.565,68.229 173.677 C 70.661 159.706,77.133 142.961,85.264 129.600 C 86.830 127.027,91.610 119.891,91.962 119.600 C 92.096 119.490,92.733 118.680,93.379 117.800 C 96.873 113.039,104.758 104.570,110.211 99.720 C 116.221 94.376,128.760 85.200,130.053 85.200 C 130.244 85.200,130.400 85.020,130.400 84.800 C 130.400 84.580,130.628 84.400,130.907 84.400 C 131.186 84.400,132.041 83.975,132.807 83.455 C 137.890 80.006,152.221 73.920,161.600 71.227 C 166.908 69.704,167.368 69.583,169.400 69.185 C 190.474 65.056,208.208 64.961,226.400 68.881 C 235.184 70.774,243.869 73.465,249.528 76.047 C 250.918 76.681,252.128 77.200,252.217 77.200 C 252.646 77.200,260.575 81.115,263.400 82.721 C 265.160 83.722,266.960 84.737,267.400 84.977 C 273.489 88.299,287.355 99.186,292.967 105.052 C 296.174 108.403,298.246 110.683,300.220 113.034 C 303.985 117.517,304.674 118.419,306.696 121.511 L 308.600 124.422 310.600 124.185 C 314.241 123.753,316.400 123.156,316.400 122.582 C 316.400 121.900,308.935 111.204,307.619 110.000 C 307.498 109.890,306.690 108.900,305.822 107.800 C 301.446 102.256,288.688 90.275,282.070 85.495 C 280.602 84.434,279.121 83.336,278.780 83.055 C 278.267 82.633,274.146 79.961,269.200 76.844 C 264.283 73.745,246.613 65.600,244.808 65.600 C 244.578 65.600,244.077 65.436,243.695 65.235 C 242.518 64.618,239.604 63.703,234.800 62.443 C 227.321 60.482,224.604 59.925,215.000 58.389 C 212.276 57.953,189.205 57.528,185.600 57.847 M349.200 122.402 C 345.936 123.086,342.376 123.843,336.800 125.037 C 335.370 125.343,333.300 125.767,332.200 125.980 C 330.152 126.375,318.035 128.927,314.800 129.645 C 313.810 129.865,311.830 130.280,310.400 130.568 C 306.313 131.392,298.163 133.097,294.000 134.000 C 289.428 134.991,279.672 137.024,275.800 137.792 C 274.260 138.097,268.770 139.271,263.600 140.399 C 258.430 141.527,252.850 142.701,251.200 143.007 C 249.550 143.313,246.940 143.847,245.400 144.193 C 243.860 144.539,241.250 145.085,239.600 145.407 C 237.950 145.728,235.340 146.277,233.800 146.626 C 232.260 146.974,227.670 147.949,223.600 148.791 C 211.649 151.263,208.353 151.958,205.600 152.588 C 204.170 152.916,202.010 153.365,200.800 153.586 C 198.260 154.051,186.195 156.576,174.000 159.195 C 171.910 159.644,168.490 160.358,166.400 160.782 C 164.310 161.206,160.890 161.942,158.800 162.417 C 156.710 162.893,154.190 163.435,153.200 163.622 C 149.588 164.302,130.082 168.363,125.400 169.409 C 123.860 169.753,120.440 170.479,117.800 171.021 C 115.160 171.564,110.390 172.556,107.200 173.227 C 104.010 173.897,100.230 174.691,98.800 174.991 C 97.370 175.291,94.850 175.804,93.200 176.131 C 91.550 176.457,89.300 176.939,88.200 177.200 C 87.100 177.461,84.940 177.919,83.400 178.216 C 81.860 178.514,77.990 179.314,74.800 179.995 C 67.116 181.634,64.393 182.211,60.800 182.961 C 59.150 183.305,56.090 183.956,54.000 184.406 C 51.910 184.857,47.959 185.682,45.219 186.240 C 42.479 186.797,40.094 187.342,39.919 187.450 C 39.552 187.677,39.476 286.000,39.843 286.000 C 39.976 286.000,44.161 285.167,49.143 284.149 C 54.124 283.131,59.370 282.068,60.800 281.786 C 63.013 281.350,71.943 279.540,77.400 278.422 C 78.280 278.242,80.350 277.872,82.000 277.599 C 83.650 277.326,85.360 276.964,85.800 276.793 C 86.240 276.623,90.380 275.747,95.000 274.847 C 107.702 272.372,111.138 271.686,114.200 271.011 C 115.740 270.671,118.890 270.018,121.200 269.559 C 123.510 269.100,126.570 268.492,128.000 268.208 C 129.430 267.924,132.040 267.410,133.800 267.066 C 135.560 266.722,141.950 265.422,148.000 264.176 C 154.050 262.930,160.260 261.666,161.800 261.367 C 165.912 260.570,174.410 258.854,190.400 255.595 C 198.210 254.003,205.410 252.554,206.400 252.375 C 207.390 252.196,212.250 251.207,217.200 250.177 C 226.815 248.177,230.494 247.439,234.000 246.809 C 235.210 246.591,237.910 246.033,240.000 245.568 C 242.090 245.102,245.150 244.472,246.800 244.168 C 248.450 243.863,250.520 243.447,251.400 243.245 C 252.280 243.043,254.080 242.670,255.400 242.417 C 256.720 242.164,260.950 241.312,264.800 240.524 C 268.650 239.736,272.970 238.865,274.400 238.588 C 280.702 237.370,283.716 236.764,288.400 235.778 C 294.952 234.399,298.342 233.716,302.000 233.039 C 303.650 232.733,309.050 231.652,314.000 230.635 C 318.950 229.619,324.890 228.424,327.200 227.980 C 329.510 227.536,332.210 226.985,333.200 226.755 C 334.190 226.525,336.800 225.996,339.000 225.579 C 341.200 225.163,344.710 224.449,346.800 223.992 C 348.890 223.536,351.410 223.034,352.400 222.876 L 354.200 222.590 354.302 172.095 L 354.403 121.600 353.502 121.645 C 353.006 121.670,351.070 122.011,349.200 122.402 M316.410 156.500 C 319.608 158.668,319.551 157.734,318.428 189.636 C 317.942 203.443,317.160 204.684,307.600 206.822 C 297.284 209.130,295.374 207.171,295.984 194.907 C 296.200 190.558,296.483 181.960,296.611 175.800 C 296.871 163.381,297.116 161.767,299.039 159.787 C 302.289 156.440,313.259 154.364,316.410 156.500 M287.255 161.828 C 289.965 163.230,290.096 164.241,289.622 180.106 C 289.391 187.858,289.113 195.010,289.005 196.000 C 288.897 196.990,288.793 200.512,288.773 203.827 C 288.732 210.849,288.787 210.703,285.971 211.209 C 284.777 211.423,283.288 211.713,282.661 211.853 L 281.523 212.108 281.661 202.836 C 281.797 193.730,281.786 193.567,281.000 193.758 C 280.560 193.865,279.021 194.156,277.580 194.404 C 276.138 194.652,274.766 194.977,274.530 195.127 C 274.262 195.297,273.969 198.861,273.750 204.600 L 273.400 213.800 271.200 214.261 C 269.990 214.515,268.299 214.740,267.443 214.761 L 265.886 214.800 266.125 212.500 C 266.256 211.235,266.557 203.450,266.794 195.200 C 267.485 171.145,267.764 168.598,270.000 165.882 C 272.497 162.850,284.003 160.147,287.255 161.828 M306.109 162.845 C 304.198 163.397,303.885 164.382,303.773 170.192 C 303.717 173.057,303.548 181.205,303.395 188.300 C 303.165 199.014,303.210 201.198,303.659 201.186 C 304.781 201.157,309.035 200.120,309.868 199.672 C 310.997 199.066,311.075 198.127,311.585 179.065 C 312.071 160.923,312.132 161.105,306.109 162.845 M258.146 167.752 C 261.910 169.324,262.020 170.112,261.375 191.012 C 260.645 214.703,260.615 214.818,254.600 217.320 C 252.711 218.106,238.813 220.946,238.481 220.614 C 238.355 220.488,238.484 212.604,238.767 203.093 C 239.051 193.582,239.355 182.830,239.444 179.200 C 239.648 170.903,239.780 170.062,240.918 169.815 C 241.403 169.709,243.870 169.245,246.400 168.783 C 248.930 168.321,251.270 167.786,251.600 167.595 C 252.548 167.046,256.694 167.145,258.146 167.752 M278.015 168.610 C 275.176 169.494,274.826 170.249,274.769 175.600 C 274.742 178.130,274.603 181.964,274.460 184.120 C 274.152 188.764,274.217 188.864,277.136 188.188 C 278.381 187.900,279.940 187.605,280.600 187.532 L 281.800 187.400 282.262 181.400 C 283.306 167.843,283.041 167.044,278.015 168.610 M231.641 173.714 C 235.439 176.268,234.534 196.564,230.439 200.663 C 228.976 202.127,228.946 201.664,231.208 212.200 C 233.516 222.952,233.667 222.051,229.442 222.773 C 226.073 223.348,226.291 223.595,225.214 218.000 C 224.727 215.470,224.072 212.140,223.759 210.600 C 223.447 209.060,223.079 207.128,222.943 206.306 C 222.630 204.412,222.168 204.065,220.272 204.303 C 218.136 204.570,218.001 205.164,217.996 214.326 C 217.989 226.009,218.245 225.463,212.436 226.213 L 210.273 226.493 210.526 222.346 C 210.665 220.066,210.976 210.910,211.218 202.000 C 211.459 193.090,211.779 183.555,211.928 180.810 L 212.200 175.820 219.000 174.359 C 227.324 172.571,229.756 172.447,231.641 173.714 M248.800 174.557 L 247.000 175.036 246.734 181.218 C 245.900 200.616,245.527 212.358,245.733 212.691 C 245.999 213.121,251.338 212.065,252.578 211.337 C 253.870 210.580,255.140 175.700,253.920 174.480 C 253.329 173.889,251.191 173.921,248.800 174.557 M207.200 180.140 L 207.200 183.081 204.300 183.727 C 202.705 184.083,200.384 184.568,199.141 184.807 C 196.337 185.344,196.412 185.099,196.405 193.690 L 196.400 200.380 197.700 200.147 C 198.415 200.019,200.016 199.664,201.258 199.357 C 205.298 198.360,205.251 198.329,205.117 201.893 L 205.000 204.986 200.634 205.892 C 198.233 206.391,196.163 206.903,196.034 207.031 C 195.674 207.390,195.358 222.853,195.707 223.067 C 196.145 223.337,202.124 222.362,202.580 221.946 C 202.789 221.756,203.562 221.600,204.297 221.600 L 205.634 221.600 205.517 224.698 L 205.400 227.796 203.000 228.243 C 201.680 228.488,199.160 229.004,197.400 229.388 C 192.672 230.421,188.252 231.185,188.068 231.001 C 187.754 230.687,189.454 180.841,189.791 180.483 C 190.018 180.241,204.654 177.309,205.900 177.256 L 207.200 177.200 207.200 180.140 M221.800 180.098 C 220.920 180.316,219.994 180.550,219.743 180.618 C 219.320 180.733,218.984 185.499,218.688 195.600 C 218.587 199.035,218.503 198.989,222.698 197.783 C 225.995 196.834,226.166 196.368,226.343 187.851 C 226.525 179.074,226.449 178.945,221.800 180.098 M185.600 184.573 C 185.600 187.915,185.885 187.634,181.690 188.431 C 178.406 189.055,178.721 187.366,178.162 207.380 C 177.891 217.071,177.541 226.905,177.385 229.232 L 177.100 233.465 174.188 234.190 C 170.182 235.187,169.882 235.017,170.158 231.900 C 170.280 230.525,170.482 223.910,170.608 217.200 C 170.833 205.147,170.912 202.989,171.430 194.843 L 171.695 190.685 169.947 190.933 C 168.986 191.069,167.435 191.292,166.500 191.428 L 164.800 191.675 164.806 188.937 C 164.813 185.678,164.978 185.363,166.800 185.106 C 168.354 184.887,179.403 182.597,181.600 182.038 C 182.370 181.842,183.585 181.663,184.300 181.641 L 185.600 181.600 185.600 184.573 M158.989 188.393 C 161.018 189.647,161.652 191.556,161.516 196.000 L 161.400 199.798 159.000 200.467 C 154.591 201.696,154.400 201.621,154.400 198.644 C 154.400 194.929,153.599 194.022,150.940 194.727 C 147.627 195.604,147.474 195.928,147.277 202.494 C 147.075 209.201,146.460 208.379,153.363 210.625 C 161.396 213.239,161.001 212.578,160.658 222.821 C 160.233 235.549,158.974 237.350,149.175 239.238 C 141.878 240.644,139.824 239.534,139.148 233.821 C 138.650 229.609,138.773 229.422,142.528 228.695 C 146.338 227.957,146.400 227.977,146.400 229.991 C 146.400 232.533,146.642 232.800,148.947 232.800 C 152.500 232.800,153.054 231.935,153.406 225.838 C 153.831 218.466,154.466 219.311,146.400 216.521 C 139.436 214.112,139.643 214.503,139.898 204.200 C 140.150 194.044,141.877 190.684,147.600 189.212 C 148.370 189.014,149.990 188.591,151.200 188.273 C 154.506 187.402,157.459 187.447,158.989 188.393 M134.666 196.900 C 134.528 199.595,134.219 207.740,133.979 215.000 C 133.738 222.260,133.420 231.437,133.271 235.394 L 133.000 242.589 129.626 243.287 C 127.771 243.672,126.163 243.896,126.053 243.786 C 125.943 243.676,126.099 239.224,126.400 233.893 C 127.114 221.223,127.271 214.375,126.824 215.400 C 126.631 215.840,125.413 220.610,124.116 226.000 L 121.758 235.800 119.210 236.350 C 116.197 236.999,115.848 236.753,115.428 233.682 C 115.286 232.647,114.829 230.180,114.413 228.200 C 113.109 221.991,112.400 218.022,112.400 216.925 C 112.400 216.343,112.265 216.001,112.100 216.166 C 111.935 216.331,111.710 223.316,111.600 231.689 L 111.400 246.913 109.777 247.391 C 108.884 247.655,107.287 247.989,106.228 248.134 L 104.302 248.398 104.581 235.699 C 104.735 228.715,105.024 220.930,105.224 218.400 C 105.424 215.870,105.591 211.370,105.597 208.400 C 105.602 205.430,105.719 201.800,105.858 200.334 L 106.109 197.667 107.786 197.245 C 108.708 197.013,110.463 196.706,111.687 196.562 L 113.912 196.300 114.321 198.250 C 114.545 199.323,115.568 204.610,116.593 210.000 C 118.358 219.277,119.240 223.293,119.465 223.068 C 119.619 222.915,122.919 209.562,125.942 196.866 C 126.378 195.032,126.795 193.472,126.868 193.399 C 127.063 193.205,132.843 192.103,133.959 192.048 L 134.918 192.000 134.666 196.900 M97.090 201.189 C 99.401 202.599,99.711 204.038,99.457 212.200 C 99.334 216.160,99.048 225.520,98.822 233.000 C 98.305 250.114,98.337 249.854,96.682 250.130 C 95.977 250.248,94.450 250.562,93.289 250.827 C 90.695 251.421,90.962 252.505,91.220 242.400 C 91.464 232.803,91.447 232.630,90.245 232.985 C 89.780 233.122,88.230 233.437,86.800 233.685 C 83.482 234.259,83.726 233.573,83.424 243.156 C 83.088 253.814,83.344 252.959,80.310 253.530 C 78.930 253.790,77.395 254.113,76.900 254.248 L 76.000 254.493 76.025 249.147 C 76.076 238.446,77.495 209.452,78.047 207.822 C 78.341 206.955,79.174 205.653,79.897 204.929 C 82.056 202.770,83.446 202.206,89.186 201.160 C 90.388 200.941,91.453 200.681,91.552 200.581 C 92.079 200.054,95.919 200.476,97.090 201.189 M86.420 208.301 C 84.601 209.223,84.503 209.708,84.163 219.485 L 83.878 227.693 86.439 227.399 C 87.848 227.238,89.630 226.902,90.400 226.652 L 91.800 226.198 92.056 217.799 C 92.378 207.195,92.466 207.600,89.857 207.601 C 88.693 207.601,87.201 207.905,86.420 208.301 M332.600 232.987 C 332.380 233.054,331.120 233.340,329.800 233.622 C 326.832 234.256,326.552 234.464,326.207 236.305 C 325.871 238.094,324.123 243.742,323.392 245.400 C 323.101 246.060,321.954 248.790,320.844 251.466 C 319.734 254.143,318.166 257.563,317.359 259.066 C 314.494 264.409,313.477 266.213,312.743 267.262 C 312.335 267.846,312.000 268.406,312.000 268.506 C 312.000 270.455,299.579 286.096,292.389 293.200 C 287.429 298.101,286.642 298.818,283.200 301.581 C 281.990 302.552,280.818 303.559,280.596 303.818 C 278.564 306.192,256.310 319.446,252.400 320.611 C 251.850 320.775,250.320 321.399,249.000 321.997 C 244.441 324.063,232.765 327.748,227.600 328.750 C 226.390 328.985,224.050 329.446,222.400 329.775 C 213.999 331.450,192.703 332.051,182.600 330.898 C 162.544 328.609,143.418 321.489,124.800 309.379 C 114.780 302.861,95.200 284.736,95.200 281.977 C 95.200 281.421,92.090 281.519,89.584 282.153 C 88.383 282.456,86.725 282.825,85.900 282.971 C 84.238 283.265,84.122 283.477,85.002 284.619 C 94.125 296.465,105.953 307.775,117.000 315.214 C 118.760 316.399,120.290 317.472,120.400 317.598 C 120.624 317.854,127.622 322.021,129.239 322.861 C 163.033 340.415,198.121 344.975,231.800 336.190 C 233.120 335.846,234.920 335.384,235.800 335.163 C 274.119 325.558,314.759 289.795,327.805 254.200 C 328.208 253.100,328.685 252.004,328.864 251.765 C 329.313 251.166,334.282 236.036,334.618 234.246 C 334.891 232.789,334.345 232.448,332.600 232.987 M255.911 260.817 C 254.970 262.164,253.822 263.734,253.359 264.305 L 252.518 265.343 251.274 264.571 C 250.589 264.147,249.042 263.102,247.836 262.249 C 245.268 260.431,244.823 260.506,243.225 263.024 C 241.767 265.324,241.826 265.467,245.190 267.765 C 248.989 270.361,249.428 271.298,247.550 272.800 C 246.905 273.316,244.800 277.035,244.800 277.659 C 244.800 278.045,245.637 278.937,246.660 279.641 C 248.930 281.203,249.076 281.134,251.914 277.160 C 253.077 275.532,254.203 274.245,254.415 274.300 C 254.628 274.355,256.190 275.303,257.886 276.405 C 261.451 278.722,261.437 278.723,262.937 276.301 C 264.412 273.921,264.205 273.413,260.801 271.079 C 257.463 268.789,257.516 269.166,260.000 265.361 C 262.597 261.383,262.557 261.242,258.111 258.651 C 257.797 258.468,257.011 259.242,255.911 260.817 M216.574 269.300 C 215.313 271.115,214.220 272.673,214.144 272.763 C 214.069 272.852,212.465 271.899,210.579 270.644 C 206.614 268.005,206.236 268.015,204.677 270.797 C 203.326 273.206,203.208 272.979,207.187 275.592 C 211.006 278.099,210.931 277.648,208.200 281.635 C 205.614 285.412,205.637 285.286,207.294 286.473 C 210.657 288.882,210.644 288.884,213.012 285.223 C 215.613 281.204,215.420 281.255,218.995 283.622 C 221.909 285.552,224.000 286.064,224.000 284.848 C 224.000 284.663,224.447 283.853,224.993 283.049 C 226.171 281.312,226.083 281.173,222.071 278.448 C 218.902 276.296,218.942 276.652,221.438 272.814 C 223.954 268.947,223.954 269.061,221.430 267.321 C 218.942 265.607,219.218 265.494,216.574 269.300 M176.285 276.390 C 175.468 277.484,174.800 278.533,174.800 278.720 C 174.800 278.907,174.361 279.473,173.824 279.978 L 172.848 280.895 171.324 279.964 C 170.486 279.453,169.740 278.891,169.667 278.717 C 169.593 278.543,169.323 278.396,169.067 278.391 C 168.810 278.386,168.150 278.030,167.600 277.600 C 166.003 276.351,165.140 276.596,163.700 278.709 C 162.035 281.152,161.867 280.761,165.800 283.600 C 169.831 286.510,169.713 285.876,166.992 290.011 L 164.785 293.367 165.692 294.224 C 166.192 294.695,167.265 295.476,168.078 295.959 L 169.556 296.838 171.835 293.584 C 174.702 289.493,174.542 289.532,178.237 292.025 C 181.761 294.403,181.938 294.385,183.756 291.463 L 184.913 289.604 183.773 288.702 C 183.147 288.206,181.726 287.157,180.617 286.372 C 178.193 284.655,178.191 284.491,180.545 280.884 C 182.847 277.358,182.844 277.168,180.465 275.642 C 177.987 274.051,178.038 274.042,176.285 276.390 " stroke="none" fill="#faf9f9" fill-rule="evenodd"></path></g></svg>